<?xml version="1.0" encoding="UTF-8" standalone="no"?>
<svg
   viewBox="0 0 300 300"
   version="1.1"
   id="svg4"
   sodipodi:docname="Code1-HTML5.svg"
   width="300"
   height="300"
   inkscape:version="1.3.2 (091e20e, 2023-11-25, custom)"
   xmlns:inkscape="http://www.inkscape.org/namespaces/inkscape"
   xmlns:sodipodi="http://sodipodi.sourceforge.net/DTD/sodipodi-0.dtd"
   xmlns="http://www.w3.org/2000/svg"
   xmlns:svg="http://www.w3.org/2000/svg"
   xmlns:rdf="http://www.w3.org/1999/02/22-rdf-syntax-ns#"
   xmlns:cc="http://creativecommons.org/ns#"
   xmlns:dc="http://purl.org/dc/elements/1.1/">
  <defs
     id="defs4" />
  <sodipodi:namedview
     id="namedview4"
     pagecolor="#ffffff"
     bordercolor="#666666"
     borderopacity="1.0"
     inkscape:showpageshadow="2"
     inkscape:pageopacity="0.0"
     inkscape:pagecheckerboard="0"
     inkscape:deskcolor="#d1d1d1"
     inkscape:zoom="1.5566406"
     inkscape:cx="233.51569"
     inkscape:cy="102.46424"
     inkscape:window-width="1920"
     inkscape:window-height="1017"
     inkscape:window-x="-8"
     inkscape:window-y="-8"
     inkscape:window-maximized="1"
     inkscape:current-layer="svg4" />
  <title
     id="title1">HTML5 Logo</title>
  <metadata
     id="metadata4">
    <rdf:RDF>
      <cc:Work
         rdf:about="">
        <dc:title>HTML5 Logo</dc:title>
      </cc:Work>
    </rdf:RDF>
  </metadata>
  <g
     id="g1"
     transform="matrix(0.5859375,0,0,0.5859375,-180.68379,62.695312)"
     style="stroke-width:1.70667">
    <polygon
       fill="#e44d26"
       points="437.367,100.62 404.321,470.819 255.778,512 107.644,470.877 74.633,100.62 "
       id="polygon1"
       transform="translate(308.367,-107)"
       style="stroke-width:1.70667" />
    <polygon
       fill="#f16529"
       points="256,480.523 376.03,447.246 404.27,130.894 256,130.894 "
       id="polygon2"
       transform="translate(308.367,-107)"
       style="stroke-width:1.70667" />
    <polygon
       fill="#ebebeb"
       points="191.76,221.716 256,221.716 256,176.305 255.843,176.305 142.132,176.305 143.219,188.488 154.38,313.627 256,313.627 256,268.217 195.91,268.217 "
       id="polygon3"
       transform="translate(308.367,-107)"
       style="stroke-width:1.70667" />
    <polygon
       fill="#ebebeb"
       points="201.994,336.333 177.419,336.333 156.409,336.333 162.771,407.634 255.791,433.457 256,433.399 256,386.153 255.801,386.206 205.227,372.55 "
       id="polygon4"
       transform="translate(308.367,-107)"
       style="stroke-width:1.70667" />
    <path
       d="m 416.749,-107 h 23.077 v 22.8 h 21.11 V -107 h 23.078 v 69.044 h -23.077 v -23.12 h -21.11 v 23.12 H 416.75 V -107 Z"
       id="path4-1"
       style="stroke-width:1.70667" />
    <path
       d="M 514.361,-84.104 H 494.045 V -107 h 63.72 v 22.896 H 537.44 v 46.148 h -23.078 v -46.148 z"
       id="path5"
       style="stroke-width:1.70667" />
    <path
       d="m 567.878,-107 h 24.063 l 14.802,24.26 14.787,-24.26 h 24.072 v 69.044 H 622.62 v -34.222 l -15.877,24.549 h -0.397 l -15.888,-24.549 v 34.222 h -22.58 z"
       id="path6"
       style="stroke-width:1.70667" />
    <path
       d="m 657.087,-107 h 23.084 v 46.222 h 32.453 v 22.822 h -55.537 z"
       id="path7"
       style="stroke-width:1.70667" />
    <polygon
       fill="#ffffff"
       points="255.843,313.627 311.761,313.627 306.49,372.521 255.843,386.191 255.843,433.435 348.937,407.634 349.62,399.962 360.291,280.411 361.399,268.217 349.162,268.217 255.843,268.217 "
       id="polygon7"
       transform="translate(308.367,-107)"
       style="stroke-width:1.70667" />
    <polygon
       fill="#ffffff"
       points="255.843,221.605 255.843,221.716 365.385,221.716 365.531,221.716 366.442,211.509 368.511,188.488 369.597,176.305 255.843,176.305 255.843,204.509 "
       id="polygon8"
       transform="translate(308.367,-107)"
       style="stroke-width:1.70667" />
  </g>
</svg>
