<?xml version="1.0" encoding="UTF-8" standalone="no"?>
<svg
   viewBox="0 0 300 300"
   version="1.1"
   id="svg4"
   sodipodi:docname="Code2-CSS3.svg"
   width="300"
   height="300"
   inkscape:version="1.3.2 (091e20e, 2023-11-25, custom)"
   xml:space="preserve"
   xmlns:inkscape="http://www.inkscape.org/namespaces/inkscape"
   xmlns:sodipodi="http://sodipodi.sourceforge.net/DTD/sodipodi-0.dtd"
   xmlns="http://www.w3.org/2000/svg"
   xmlns:svg="http://www.w3.org/2000/svg"
   xmlns:rdf="http://www.w3.org/1999/02/22-rdf-syntax-ns#"
   xmlns:cc="http://creativecommons.org/ns#"
   xmlns:dc="http://purl.org/dc/elements/1.1/"><defs
     id="defs4" /><sodipodi:namedview
     id="namedview4"
     pagecolor="#ffffff"
     bordercolor="#666666"
     borderopacity="1.0"
     inkscape:showpageshadow="2"
     inkscape:pageopacity="0.0"
     inkscape:pagecheckerboard="0"
     inkscape:deskcolor="#d1d1d1"
     inkscape:zoom="1"
     inkscape:cx="132.5"
     inkscape:cy="34.5"
     inkscape:window-width="1920"
     inkscape:window-height="1017"
     inkscape:window-x="-8"
     inkscape:window-y="-8"
     inkscape:window-maximized="1"
     inkscape:current-layer="svg4" /><title
     id="title1">CSS3 Logo Badge</title><path
     fill="#e34f26"
     d="M 41.894532,269.53125 17.871095,0 H 282.12891 L 258.10547,269.53125 149.70703,300"
     id="path1"
     style="fill:#264de4;fill-opacity:1;stroke-width:1" /><path
     fill="#ef652a"
     d="M 149.70699,276.5625 237.59765,252.53906 258.10547,21.679687 H 149.70699"
     id="path2"
     style="fill:#2965f1;fill-opacity:1;stroke-width:1"
     sodipodi:nodetypes="cccc" /><path
     fill="#ebebeb"
     d="m 149.70703,208.00781 -36.91405,-9.96094 -2.34375,-26.36718 H 92.871095 77.63672 l 4.101562,52.14843 67.968748,18.75 v 0 l 2.24597,-0.61944 v -34.55692 z"
     id="path3"
     style="stroke-width:1"
     sodipodi:nodetypes="ccccccccccc" /><path
     d="m 151.707,55.078125 3e-5,20.507812 V 87.890813 L 69.834377,87.891 c -3.330457,-32.812875 0.0133,0.01915 -3.330457,-32.812875 z"
     style="fill:#ebebeb;fill-opacity:1;stroke-width:1"
     id="path1-7"
     sodipodi:nodetypes="cccccc" /><metadata
     id="metadata4"><rdf:RDF><cc:Work
         rdf:about=""><dc:title>CSS3 Logo Badge</dc:title></cc:Work></rdf:RDF></metadata><path
     d="m 151.70703,121.875 v 33.398 l -75.828123,4.4e-4 v 0 0 c -2.712845,-32.86224 0,-0.004 -2.996921,-33.39844 z"
     style="fill:#ebebeb;fill-opacity:1;stroke-width:0.999996"
     id="path1-7-1"
     sodipodi:nodetypes="ccccccc" /><path
     id="path4"
     style="fill:#ffffff;fill-opacity:1;stroke-width:1"
     d="m 149.70703,55.078125 v 20.507813 12.304687 h 46.875 L 193.65234,121.875 h -43.94531 v 33.39844 h 41.01562 l -4.10156,42.77344 -36.91406,9.96093 v 34.57031 l 67.96875,-18.75 0.58593,-5.85937 5.47461,-62.75781 0.0117,-0.13282 2.69141,-28.61718 0.61133,-4.58594 h -0.17967 l 5.45312,-58.007812 0.58594,-8.789063 z" /></svg>
