<?xml version="1.0" encoding="UTF-8" standalone="no"?>
<!-- Created with Inkscape (http://www.inkscape.org/) -->

<svg
   width="300"
   height="300"
   viewBox="0 0 79.374999 79.374999"
   version="1.1"
   id="svg1"
   inkscape:version="1.3.2 (091e20e, 2023-11-25, custom)"
   sodipodi:docname="Code3-JS.svg"
   xmlns:inkscape="http://www.inkscape.org/namespaces/inkscape"
   xmlns:sodipodi="http://sodipodi.sourceforge.net/DTD/sodipodi-0.dtd"
   xmlns="http://www.w3.org/2000/svg"
   xmlns:svg="http://www.w3.org/2000/svg"
   xmlns:rdf="http://www.w3.org/1999/02/22-rdf-syntax-ns#"
   xmlns:cc="http://creativecommons.org/ns#"
   xmlns:dc="http://purl.org/dc/elements/1.1/">
  <sodipodi:namedview
     id="namedview1"
     pagecolor="#ffffff"
     bordercolor="#666666"
     borderopacity="1.0"
     inkscape:showpageshadow="2"
     inkscape:pageopacity="0.0"
     inkscape:pagecheckerboard="0"
     inkscape:deskcolor="#d1d1d1"
     inkscape:document-units="px"
     inkscape:zoom="1.3879489"
     inkscape:cx="189.84848"
     inkscape:cy="144.45776"
     inkscape:window-width="1920"
     inkscape:window-height="1017"
     inkscape:window-x="-8"
     inkscape:window-y="-8"
     inkscape:window-maximized="1"
     inkscape:current-layer="layer1" />
  <defs
     id="defs1" />
  <g
     inkscape:label="Layer 1"
     inkscape:groupmode="layer"
     id="layer1">
    <g
       id="g1"
       transform="translate(-19.314583,3.96875)">
      <rect
         style="font-variation-settings:normal;vector-effect:none;fill:#f0db4f;fill-opacity:1;fill-rule:evenodd;stroke:none;stroke-width:0.79375;stroke-linecap:butt;stroke-linejoin:miter;stroke-miterlimit:4;stroke-dasharray:none;stroke-dashoffset:0;stroke-opacity:1;-inkscape-stroke:none;stop-color:#000000"
         id="rect2"
         width="79.375"
         height="79.375"
         x="19.314583"
         y="-3.96875" />
      <g
         id="g2"
         transform="matrix(0.21350818,0,0,0.21350818,-35.084599,10.234789)"
         style="stroke-width:1.23922">
        <path
           style="font-variation-settings:normal;opacity:1;fill:#000000;fill-opacity:1;fill-rule:evenodd;stroke:none;stroke-width:2.47844;stroke-linecap:round;stroke-linejoin:round;stroke-miterlimit:4;stroke-dasharray:none;stroke-dashoffset:0;stroke-opacity:1;stop-color:#000000;stop-opacity:1"
           d="m 456.085,137.07654 h 27.761 v 101.31743 c 0,41.69645 -46.96813,36.11101 -52.22743,35.7591 -15.39711,-1.03025 -23.45522,-12.01196 -30.58344,-23.0552 l 21.8005,-13.64492 c 9.62968,21.07969 33.24937,19.31661 33.24937,-0.62735 z"
           id="path1"
           sodipodi:nodetypes="ccssccsc" />
        <path
           style="font-variation-settings:normal;opacity:1;fill:#000000;fill-opacity:1;fill-rule:evenodd;stroke:none;stroke-width:2.47844;stroke-linecap:round;stroke-linejoin:round;stroke-miterlimit:4;stroke-dasharray:none;stroke-dashoffset:0;stroke-opacity:1;stop-color:#000000;stop-opacity:1"
           d="m 566.81305,173.14931 21.95734,-14.74279 c -10.70811,-17.6027 -26.15253,-21.50393 -42.65998,-22.32998 -30.28343,4.1815 -37.76789,22.24134 -38.2685,38.0138 -0.40373,12.72009 8.48234,23.84823 16.61234,30.86233 12.70663,10.96254 36.28847,12.89748 43.36017,26.19849 8.99408,16.91677 -18.4742,27.28946 -35.19209,16.33943 -4.59721,-3.01112 -10.50815,-12.70389 -10.50815,-12.70389 l -22.42786,12.70389 c 17.95991,25.49147 37.46623,32.23316 68.06776,25.72146 16.30829,-3.47024 27.32428,-20.94746 28.70138,-28.54455 2.8149,-15.52905 -3.23238,-34.47647 -25.25094,-46.26725 -9.3262,-4.99411 -29.01506,-12.86073 -29.01506,-12.86073 -7.26649,-4.9856 -7.96391,-12.95723 -6.11669,-17.09535 1.6453,-3.68578 6.44393,-8.31243 12.70389,-8.31243 5.79366,0 14.54156,3.31047 18.03639,13.01757 z"
           id="path2"
           sodipodi:nodetypes="cccssssccssscssc" />
      </g>
    </g>
  </g>
  <title
     id="js-logo">JS Logo</title>
  <metadata
     id="metadata1">
    <rdf:RDF>
      <cc:Work
         rdf:about="">
        <dc:title>JS Logo</dc:title>
      </cc:Work>
    </rdf:RDF>
  </metadata>
</svg>
